<svg width="40" height="40" viewBox="0 0 40 40" fill="none" xmlns="http://www.w3.org/2000/svg">
<path d="M39.5143 5.89209C39.208 5.64443 38.8046 5.54878 38.4196 5.63122C38.4077 5.63374 37.2125 5.88496 35.3404 5.88496C31.5682 5.88496 25.9956 4.92165 20.8701 0.332609C20.3747 -0.11087 19.6254 -0.11087 19.1299 0.332609C14.0046 4.92148 8.43191 5.88487 4.65957 5.88496C2.78704 5.88496 1.59243 5.63374 1.58357 5.63183C1.19757 5.54722 0.794435 5.64209 0.486696 5.88974C0.178957 6.1373 0 6.51104 0 6.906C0 19.3655 3.85252 27.0387 7.08443 31.2817C11.5022 37.0817 16.6529 39.1483 20 39.1483C23.3471 39.1483 28.4979 37.0817 32.9156 31.2817C36.1475 27.0387 40 19.3654 40 6.906C40 6.51209 39.8206 6.13965 39.5143 5.89209ZM30.6156 15.9682L18.9503 27.6335C18.6956 27.8882 18.3617 28.0156 18.028 28.0156C17.6943 28.0156 17.3603 27.8883 17.1057 27.6335L10.428 20.9557C9.91861 20.4463 9.91861 19.6205 10.428 19.1111C10.9373 18.6017 11.7632 18.6017 12.2726 19.1111L18.0281 24.8665L28.7711 14.1236C29.2804 13.6143 30.1063 13.6142 30.6157 14.1236C31.125 14.633 31.125 15.4588 30.6156 15.9682Z" fill="#1F3647"/>
</svg>
